<svg xmlns="http://www.w3.org/2000/svg" xmlns:xlink="http://www.w3.org/1999/xlink" width="888" height="120" viewBox="0 0 888 120" role="img"><title>long-label.archmark (V3 dark)</title><rect width="888" height="120" fill="#0D1117"/><defs><marker id="a-V3" viewBox="0 0 8 6" refX="7" refY="3" markerWidth="8" markerHeight="6" orient="auto-start-reverse"><polygon points="0,0 8,3 0,6" fill="#8B9BB0"/></marker></defs><path d="M238 42 L310 42" fill="none" stroke="#8B9BB0" stroke-width="1.75" marker-end="url(#a-V3)"/><path d="M536 42 L608 42" fill="none" stroke="#8B9BB0" stroke-width="1.75" marker-end="url(#a-V3)"/><g><title>API Gateway With Extremely Long Service Name That Must Truncate Gracefully</title><rect x="310" y="12" width="226" height="60" rx="6" fill="#161D27" stroke="#E6EDF3" stroke-width="1"/><rect x="310" y="12" width="3" height="60" rx="1.5" fill="#6AA6FF"/><g transform="translate(334,42) scale(0.833) translate(-12,-12)" color="#E6EDF3"><g fill="none" stroke="currentColor" stroke-width="2" stroke-linecap="round" stroke-linejoin="round"><rect x="4" y="4" width="16" height="16" rx="3"/><path d="M9 12h6M12 9v6"/></g></g><text x="354" y="46.5" font-family="-apple-system,BlinkMacSystemFont,'Segoe UI',Roboto,Helvetica,Arial,'Noto Sans',sans-serif" font-size="12.5" font-weight="600" fill="#E6EDF3">API Gateway With Extr…</text></g><g><title>PostgreSQL Primary With A Very Long Descriptive Label For Wrapping Tests</title><rect x="608" y="12" width="226" height="60" rx="6" fill="#161D27" stroke="#E6EDF3" stroke-width="1"/><rect x="608" y="12" width="3" height="60" rx="1.5" fill="#6AA6FF"/><g transform="translate(632,42) scale(0.833) translate(-12,-12)" color="#E6EDF3"><g fill="none" stroke="currentColor" stroke-width="2" stroke-linecap="round" stroke-linejoin="round"><ellipse cx="12" cy="6.5" rx="7" ry="2.8"/><path d="M5 6.5v11c0 1.5 3.1 2.8 7 2.8s7-1.3 7-2.8v-11"/><path d="M5 12c0 1.5 3.1 2.8 7 2.8s7-1.3 7-2.8"/></g></g><text x="652" y="46.5" font-family="-apple-system,BlinkMacSystemFont,'Segoe UI',Roboto,Helvetica,Arial,'Noto Sans',sans-serif" font-size="12.5" font-weight="600" fill="#E6EDF3">PostgreSQL Primary Wi…</text></g><g><title>End User With A Surprisingly Long Display Name For Edge Cases</title><rect x="12" y="12" width="226" height="60" rx="6" fill="#161D27" stroke="#E6EDF3" stroke-width="1"/><rect x="12" y="12" width="3" height="60" rx="1.5" fill="#6AA6FF"/><g transform="translate(36,42) scale(0.833) translate(-12,-12)" color="#E6EDF3"><g fill="none" stroke="currentColor" stroke-width="2" stroke-linecap="round" stroke-linejoin="round"><circle cx="12" cy="8" r="3.2"/><path d="M5.5 19c1.2-3.2 3.6-4.8 6.5-4.8s5.3 1.6 6.5 4.8"/></g></g><text x="56" y="46.5" font-family="-apple-system,BlinkMacSystemFont,'Segoe UI',Roboto,Helvetica,Arial,'Noto Sans',sans-serif" font-size="12.5" font-weight="600" fill="#E6EDF3">End User With A Surpr…</text></g></svg>