<svg xmlns="http://www.w3.org/2000/svg" xmlns:xlink="http://www.w3.org/1999/xlink" width="840" height="416" viewBox="0 0 840 416" role="img"><title>microservices.archmark (V3 light)</title><rect width="840" height="416" fill="#FFFFFF"/><defs><marker id="a-V3" viewBox="0 0 8 6" refX="7" refY="3" markerWidth="8" markerHeight="6" orient="auto-start-reverse"><polygon points="0,0 8,3 0,6" fill="#4A5A6E"/></marker></defs><path d="M166 42 L238 42" fill="none" stroke="#4A5A6E" stroke-width="1.75" marker-end="url(#a-V3)"/><path d="M166 62 L176 62 L176 150 L238 150" fill="none" stroke="#4A5A6E" stroke-width="1.75" marker-end="url(#a-V3)"/><path d="M378 42 L450 42" fill="none" stroke="#4A5A6E" stroke-width="1.75" marker-end="url(#a-V3)"/><path d="M378 150 L450 150" fill="none" stroke="#4A5A6E" stroke-width="1.75" marker-end="url(#a-V3)"/><path d="M152 240 L224 240" fill="none" stroke="#4A5A6E" stroke-width="1.75" marker-end="url(#a-V3)"/><path d="M364 230 L436 230" fill="none" stroke="#4A5A6E" stroke-width="1.75" marker-end="url(#a-V3)"/><path d="M576 230 L648 230" fill="none" stroke="#4A5A6E" stroke-width="1.75" marker-end="url(#a-V3)"/><path d="M364 250 L374 250 L374 338 L436 338" fill="none" stroke="#4A5A6E" stroke-width="1.75" marker-end="url(#a-V3)"/><path d="M576 338 L648 338" fill="none" stroke="#4A5A6E" stroke-width="1.75" marker-end="url(#a-V3)"/><g><title>Auth</title><rect x="238" y="12" width="140" height="60" rx="6" fill="#FFFFFF" stroke="#1A2330" stroke-width="1"/><rect x="238" y="12" width="3" height="60" rx="1.5" fill="#2563EB"/><g transform="translate(262,42) scale(0.833) translate(-12,-12)" color="#1A2330"><g fill="none" stroke="currentColor" stroke-width="2" stroke-linecap="round" stroke-linejoin="round"><rect x="4" y="4" width="16" height="16" rx="3"/><path d="M9 12h6M12 9v6"/></g></g><text x="282" y="46.5" font-family="-apple-system,BlinkMacSystemFont,'Segoe UI',Roboto,Helvetica,Arial,'Noto Sans',sans-serif" font-size="12.5" font-weight="600" fill="#1A2330">Auth</text></g><g><title>Cart</title><rect x="12" y="210" width="140" height="60" rx="6" fill="#FFFFFF" stroke="#1A2330" stroke-width="1"/><rect x="12" y="210" width="3" height="60" rx="1.5" fill="#2563EB"/><g transform="translate(36,240) scale(0.833) translate(-12,-12)" color="#1A2330"><g fill="none" stroke="currentColor" stroke-width="2" stroke-linecap="round" stroke-linejoin="round"><rect x="4" y="4" width="16" height="16" rx="3"/><path d="M9 12h6M12 9v6"/></g></g><text x="56" y="244.5" font-family="-apple-system,BlinkMacSystemFont,'Segoe UI',Roboto,Helvetica,Arial,'Noto Sans',sans-serif" font-size="12.5" font-weight="600" fill="#1A2330">Cart</text></g><g><title>Catalog</title><rect x="238" y="120" width="140" height="60" rx="6" fill="#FFFFFF" stroke="#1A2330" stroke-width="1"/><rect x="238" y="120" width="3" height="60" rx="1.5" fill="#2563EB"/><g transform="translate(262,150) scale(0.833) translate(-12,-12)" color="#1A2330"><g fill="none" stroke="currentColor" stroke-width="2" stroke-linecap="round" stroke-linejoin="round"><rect x="4" y="4" width="16" height="16" rx="3"/><path d="M9 12h6M12 9v6"/></g></g><text x="282" y="154.5" font-family="-apple-system,BlinkMacSystemFont,'Segoe UI',Roboto,Helvetica,Arial,'Noto Sans',sans-serif" font-size="12.5" font-weight="600" fill="#1A2330">Catalog</text></g><g><title>Edge Gateway</title><rect x="12" y="22" width="154" height="60" rx="6" fill="#FFFFFF" stroke="#1A2330" stroke-width="1"/><rect x="12" y="22" width="3" height="60" rx="1.5" fill="#2563EB"/><g transform="translate(36,52) scale(0.833) translate(-12,-12)" color="#1A2330"><g fill="none" stroke="currentColor" stroke-width="2" stroke-linecap="round" stroke-linejoin="round"><circle cx="12" cy="12" r="8"/><circle cx="12" cy="12" r="2.5"/><path d="M12 4v3M12 17v3M4 12h3M17 12h3"/></g></g><text x="56" y="56.5" font-family="-apple-system,BlinkMacSystemFont,'Segoe UI',Roboto,Helvetica,Arial,'Noto Sans',sans-serif" font-size="12.5" font-weight="600" fill="#1A2330">Edge Gateway</text></g><g><title>Events</title><rect x="436" y="308" width="140" height="60" rx="6" fill="#FFFFFF" stroke="#1A2330" stroke-width="1"/><rect x="436" y="308" width="3" height="60" rx="1.5" fill="#2563EB"/><g transform="translate(460,338) scale(0.833) translate(-12,-12)" color="#1A2330"><g fill="none" stroke="currentColor" stroke-width="2" stroke-linecap="round" stroke-linejoin="round"><path d="M4 7h16M4 12h16M4 17h16"/><g stroke="none" fill="currentColor"><circle cx="7" cy="7" r="1.4"/><circle cx="15" cy="12" r="1.4"/><circle cx="10" cy="17" r="1.4"/></g></g></g><text x="480" y="342.5" font-family="-apple-system,BlinkMacSystemFont,'Segoe UI',Roboto,Helvetica,Arial,'Noto Sans',sans-serif" font-size="12.5" font-weight="600" fill="#1A2330">Events</text></g><g><title>Ledger DB</title><rect x="648" y="200" width="140" height="60" rx="6" fill="#FFFFFF" stroke="#1A2330" stroke-width="1"/><rect x="648" y="200" width="3" height="60" rx="1.5" fill="#2563EB"/><g transform="translate(672,230) scale(0.833) translate(-12,-12)" color="#1A2330"><g fill="none" stroke="currentColor" stroke-width="2" stroke-linecap="round" stroke-linejoin="round"><ellipse cx="12" cy="6.5" rx="7" ry="2.8"/><path d="M5 6.5v11c0 1.5 3.1 2.8 7 2.8s7-1.3 7-2.8v-11"/><path d="M5 12c0 1.5 3.1 2.8 7 2.8s7-1.3 7-2.8"/></g></g><text x="692" y="234.5" font-family="-apple-system,BlinkMacSystemFont,'Segoe UI',Roboto,Helvetica,Arial,'Noto Sans',sans-serif" font-size="12.5" font-weight="600" fill="#1A2330">Ledger DB</text></g><g><title>Orders</title><rect x="224" y="210" width="140" height="60" rx="6" fill="#FFFFFF" stroke="#1A2330" stroke-width="1"/><rect x="224" y="210" width="3" height="60" rx="1.5" fill="#2563EB"/><g transform="translate(248,240) scale(0.833) translate(-12,-12)" color="#1A2330"><g fill="none" stroke="currentColor" stroke-width="2" stroke-linecap="round" stroke-linejoin="round"><rect x="4" y="4" width="16" height="16" rx="3"/><path d="M9 12h6M12 9v6"/></g></g><text x="268" y="244.5" font-family="-apple-system,BlinkMacSystemFont,'Segoe UI',Roboto,Helvetica,Arial,'Noto Sans',sans-serif" font-size="12.5" font-weight="600" fill="#1A2330">Orders</text></g><g><title>Payments</title><rect x="436" y="200" width="140" height="60" rx="6" fill="#FFFFFF" stroke="#1A2330" stroke-width="1"/><rect x="436" y="200" width="3" height="60" rx="1.5" fill="#2563EB"/><g transform="translate(460,230) scale(0.833) translate(-12,-12)" color="#1A2330"><g fill="none" stroke="currentColor" stroke-width="2" stroke-linecap="round" stroke-linejoin="round"><rect x="4" y="4" width="16" height="16" rx="3"/><path d="M9 12h6M12 9v6"/></g></g><text x="480" y="234.5" font-family="-apple-system,BlinkMacSystemFont,'Segoe UI',Roboto,Helvetica,Arial,'Noto Sans',sans-serif" font-size="12.5" font-weight="600" fill="#1A2330">Payments</text></g><g><title>Shipper</title><rect x="648" y="308" width="140" height="60" rx="6" fill="#FFFFFF" stroke="#1A2330" stroke-width="1"/><rect x="648" y="308" width="3" height="60" rx="1.5" fill="#2563EB"/><g transform="translate(672,338) scale(0.833) translate(-12,-12)" color="#1A2330"><g fill="none" stroke="currentColor" stroke-width="2" stroke-linecap="round" stroke-linejoin="round"><circle cx="12" cy="12" r="3"/><path d="M12 2.8v3M12 18.2v3M2.8 12h3M18.2 12h3M5.5 5.5l2.1 2.1M16.4 16.4l2.1 2.1M18.5 5.5l-2.1 2.1M7.6 16.4l-2.1 2.1"/></g></g><text x="692" y="342.5" font-family="-apple-system,BlinkMacSystemFont,'Segoe UI',Roboto,Helvetica,Arial,'Noto Sans',sans-serif" font-size="12.5" font-weight="600" fill="#1A2330">Shipper</text></g><g><title>Inventory DB</title><rect x="450" y="120" width="154" height="60" rx="6" fill="#FFFFFF" stroke="#1A2330" stroke-width="1"/><rect x="450" y="120" width="3" height="60" rx="1.5" fill="#2563EB"/><g transform="translate(474,150) scale(0.833) translate(-12,-12)" color="#1A2330"><g fill="none" stroke="currentColor" stroke-width="2" stroke-linecap="round" stroke-linejoin="round"><ellipse cx="12" cy="6.5" rx="7" ry="2.8"/><path d="M5 6.5v11c0 1.5 3.1 2.8 7 2.8s7-1.3 7-2.8v-11"/><path d="M5 12c0 1.5 3.1 2.8 7 2.8s7-1.3 7-2.8"/></g></g><text x="494" y="154.5" font-family="-apple-system,BlinkMacSystemFont,'Segoe UI',Roboto,Helvetica,Arial,'Noto Sans',sans-serif" font-size="12.5" font-weight="600" fill="#1A2330">Inventory DB</text></g><g><title>Users DB</title><rect x="450" y="12" width="140" height="60" rx="6" fill="#FFFFFF" stroke="#1A2330" stroke-width="1"/><rect x="450" y="12" width="3" height="60" rx="1.5" fill="#2563EB"/><g transform="translate(474,42) scale(0.833) translate(-12,-12)" color="#1A2330"><g fill="none" stroke="currentColor" stroke-width="2" stroke-linecap="round" stroke-linejoin="round"><ellipse cx="12" cy="6.5" rx="7" ry="2.8"/><path d="M5 6.5v11c0 1.5 3.1 2.8 7 2.8s7-1.3 7-2.8v-11"/><path d="M5 12c0 1.5 3.1 2.8 7 2.8s7-1.3 7-2.8"/></g></g><text x="494" y="46.5" font-family="-apple-system,BlinkMacSystemFont,'Segoe UI',Roboto,Helvetica,Arial,'Noto Sans',sans-serif" font-size="12.5" font-weight="600" fill="#1A2330">Users DB</text></g></svg>